<svg width="706" height="1006" viewBox="0 0 706 1006" xmlns="http://www.w3.org/2000/svg" fill="none"><path opacity=".62" d="M202.486 795.586l125.308-156.404c13.089-16.338 37.707-16.338 50.797 0l125.308 156.404c9.743 12.162 9.743 29.573 0 41.735l-125.308 156.404c-13.09 16.335-37.708 16.335-50.797 0l-125.308-156.404c-9.744-12.162-9.744-29.573 0-41.735z" fill="#1BA5F8"/><path d="M397.192 413.117l125.308-156.405c13.09-16.337 37.708-16.337 50.797 0l125.308 156.405c9.744 12.161 9.744 29.572 0 41.734l-125.308 156.404c-13.089 16.338-37.707 16.338-50.797 0l-125.308-156.404c-9.743-12.162-9.743-29.573 0-41.734zM7.832 413.117l125.308-156.405c13.09-16.337 37.708-16.337 50.797 0l125.308 156.405c9.744 12.161 9.744 29.572 0 41.734l-125.308 156.404c-13.089 16.338-37.707 16.338-50.797 0l-125.308-156.404c-9.744-12.162-9.744-29.573 0-41.734zM202.512 168.658l125.308-156.405c13.09-16.337 37.708-16.337 50.797 0l125.308 156.405c9.744 12.161 9.744 29.572 0 41.734l-125.308 156.404c-13.089 16.338-37.707 16.338-50.797 0l-125.308-156.404c-9.743-12.162-9.743-29.573 0-41.734z" fill="#1BA5F8"/></svg>